<?xml version="1.0" encoding="utf-8"?>
<!-- Generator: Adobe Illustrator 27.8.1, SVG Export Plug-In . SVG Version: 6.00 Build 0)  -->
<svg version="1.1" id="Layer_1" xmlns="http://www.w3.org/2000/svg" xmlns:xlink="http://www.w3.org/1999/xlink" x="0px" y="0px"
	 viewBox="0 0 100 101.9" style="enable-background:new 0 0 100 101.9;" xml:space="preserve">
<style type="text/css">
	.st0{fill:#FFEED3;}
</style>
<g>
	<path class="st0" d="M50,3.2c12.4,0,24.9,0,37.3,0c4.8,0,8.8,3.2,10,7.8c1.2,4.5-0.4,9.3-4.5,11.6c-1.9,1.1-4.2,1.7-6.3,1.8
		c-24.4,0.1-48.7,0.1-73.1,0.1c-6.5,0-11.3-4.7-11.2-10.8C2.3,7.6,7,3.2,13.5,3.2C25.7,3.2,37.8,3.2,50,3.2C50,3.2,50,3.2,50,3.2z"
		/>
	<path class="st0" d="M50,98.7c-12.1,0-24.2,0-36.3,0c-6.6,0-11.4-4.4-11.5-10.5c-0.1-6.1,4.6-10.8,11.2-10.8
		c24.4-0.1,48.7-0.1,73.1,0c6.6,0,11.3,4.7,11.2,10.8c-0.1,6.1-4.8,10.5-11.5,10.5C74.2,98.7,62.1,98.7,50,98.7z"/>
	<path class="st0" d="M50,61.5c-12.2,0-24.4,0-36.5,0C7,61.5,2.3,57.1,2.2,51.1c-0.1-6,4.5-10.7,10.9-10.7c24.6,0,49.2,0,73.8,0
		c5.6,0,9.9,3.8,10.7,9.1c0.7,5.1-2.6,10.2-7.7,11.6c-1.2,0.3-2.5,0.3-3.7,0.4C74.2,61.5,62.1,61.5,50,61.5z"/>
</g>
</svg>
